<svg width="24" height="24" viewBox="0 0 24 24" fill="none" xmlns="http://www.w3.org/2000/svg">
<path d="M19.7257 16.4706C19.4453 15.8431 18.5547 15.8431 18.2743 16.4706L17.7173 17.7173L16.4706 18.2743C15.8431 18.5547 15.8431 19.4453 16.4706 19.7257L17.7173 20.2827L18.2743 21.5294C18.5547 22.1569 19.4453 22.1569 19.7257 21.5294L20.2827 20.2827L21.5294 19.7257C22.1569 19.4453 22.1569 18.5547 21.5294 18.2743L20.2827 17.7173L19.7257 16.4706Z" fill="#525252"/>
<path d="M20 13V7C20 5.34315 18.6569 4 17 4H7C5.34315 4 4 5.34315 4 7V17C4 18.6569 5.34315 20 7 20H13M4.5 18.5455L7.90077 14.973C8.50343 14.3399 9.50926 14.3275 10.1273 14.9456C10.7348 15.553 11.7197 15.553 12.3271 14.9456L13.5645 13.7082C14.3538 12.9189 15.6365 12.9285 16.4139 13.7295L16.5 13.8182M13 9.04547C13 9.8739 12.3284 10.5455 11.5 10.5455C10.6716 10.5455 10 9.8739 10 9.04547C10 8.21704 10.6716 7.54547 11.5 7.54547C12.3284 7.54547 13 8.21704 13 9.04547Z" stroke="#525252" stroke-width="1.5" stroke-linecap="round"/>
</svg>
