<svg width="24" height="24" viewBox="0 0 24 24" fill="none" xmlns="http://www.w3.org/2000/svg">
<path d="M16.1586 17.1688L14.913 19.9566C14.5603 20.746 13.4397 20.746 13.087 19.9566L11.8414 17.1688C11.6405 16.7192 11.2808 16.3595 10.8312 16.1586L8.04339 14.913C7.25397 14.5603 7.25397 13.4397 8.04338 13.087L10.8312 11.8414C11.2808 11.6405 11.6405 11.2808 11.8414 10.8312L13.087 8.0434C13.4397 7.25399 14.5603 7.25399 14.913 8.0434L16.1586 10.8312C16.3595 11.2808 16.7192 11.6405 17.1688 11.8414L19.9566 13.087C20.746 13.4397 20.746 14.5603 19.9566 14.913L17.1688 16.1586C16.7192 16.3595 16.3595 16.7192 16.1586 17.1688Z" stroke="white" stroke-width="1.5"/>
<path d="M10.4838 2.31373C10.2969 1.89542 9.7031 1.89542 9.5162 2.31373L9.14485 3.14485L8.31373 3.5162C7.89542 3.7031 7.89542 4.2969 8.31373 4.4838L9.14485 4.85515L9.5162 5.68627C9.7031 6.10458 10.2969 6.10458 10.4838 5.68627L10.8552 4.85515L11.6863 4.4838C12.1046 4.2969 12.1046 3.7031 11.6863 3.5162L10.8552 3.14485L10.4838 2.31373Z" fill="white"/>
<path d="M5.7257 5.47059C5.44534 4.84314 4.55466 4.84313 4.2743 5.47059L3.71727 6.71727L2.47059 7.2743C1.84314 7.55466 1.84314 8.44534 2.47059 8.7257L3.71727 9.28273L4.2743 10.5294C4.55466 11.1569 5.44534 11.1569 5.7257 10.5294L6.28273 9.28273L7.52941 8.7257C8.15687 8.44534 8.15687 7.55466 7.52941 7.2743L6.28273 6.71727L5.7257 5.47059Z" fill="white"/>
</svg>
