<svg width="24" height="24" viewBox="0 0 24 24" fill="none" xmlns="http://www.w3.org/2000/svg">
<path d="M17.2322 20.2423L16.913 20.9566C16.5603 21.746 15.4397 21.746 15.087 20.9566L14.7678 20.2423C14.567 19.7927 14.2073 19.433 13.7577 19.2322L13.0434 18.913C12.254 18.5603 12.254 17.4397 13.0434 17.087L13.7577 16.7678C14.2073 16.567 14.567 16.2073 14.7678 15.7577L15.087 15.0434C15.4397 14.254 16.5603 14.254 16.913 15.0434L17.2322 15.7577C17.433 16.2073 17.7927 16.567 18.2423 16.7678L18.9566 17.087C19.746 17.4397 19.746 18.5603 18.9566 18.913L18.2423 19.2322C17.7927 19.433 17.433 19.7927 17.2322 20.2423Z" stroke="white" stroke-width="1.5"/>
<path d="M14.8787 3.87868L14.3483 4.40901L14.3483 4.40901L14.8787 3.87868ZM19.1213 8.12132L19.6517 7.59099L19.1213 8.12132ZM19.25 13C19.25 13.4142 19.5858 13.75 20 13.75C20.4142 13.75 20.75 13.4142 20.75 13H19.25ZM9.5 21.75C9.91421 21.75 10.25 21.4142 10.25 21C10.25 20.5858 9.91421 20.25 9.5 20.25V21.75ZM8 10.25C7.58579 10.25 7.25 10.5858 7.25 11C7.25 11.4142 7.58579 11.75 8 11.75V10.25ZM12 11.75C12.4142 11.75 12.75 11.4142 12.75 11C12.75 10.5858 12.4142 10.25 12 10.25V11.75ZM8 14.25C7.58579 14.25 7.25 14.5858 7.25 15C7.25 15.4142 7.58579 15.75 8 15.75V14.25ZM10 15.75C10.4142 15.75 10.75 15.4142 10.75 15C10.75 14.5858 10.4142 14.25 10 14.25V15.75ZM4.75 18V6H3.25V18H4.75ZM14.3483 4.40901L18.591 8.65165L19.6517 7.59099L15.409 3.34835L14.3483 4.40901ZM7 3.75H12.7574V2.25H7V3.75ZM19.25 10.2426V13H20.75V10.2426H19.25ZM9.5 20.25H7V21.75H9.5V20.25ZM15.409 3.34835C15.0884 3.02771 14.7156 2.7711 14.3107 2.58682L13.6893 3.9521C13.9323 4.06267 14.1559 4.2166 14.3483 4.40901L15.409 3.34835ZM14.3107 2.58682C13.8275 2.36696 13.2984 2.25 12.7574 2.25V3.75C13.082 3.75 13.3994 3.82015 13.6893 3.9521L14.3107 2.58682ZM18.591 8.65165C18.7834 8.84406 18.9373 9.06767 19.0479 9.31065L20.4132 8.68935C20.2289 8.28442 19.9723 7.91163 19.6517 7.59099L18.591 8.65165ZM19.0479 9.31065C19.1799 9.60061 19.25 9.91799 19.25 10.2426H20.75C20.75 9.70155 20.633 9.17249 20.4132 8.68935L19.0479 9.31065ZM3.25 18C3.25 20.0711 4.92893 21.75 7 21.75V20.25C5.75736 20.25 4.75 19.2426 4.75 18H3.25ZM4.75 6C4.75 4.75736 5.75736 3.75 7 3.75V2.25C4.92893 2.25 3.25 3.92893 3.25 6H4.75ZM13.25 3V3.26946H14.75V3H13.25ZM13.25 3.26946V7H14.75V3.26946H13.25ZM16 9.75H19.7305V8.25H16V9.75ZM19.7305 9.75H20V8.25H19.7305V9.75ZM13.25 7C13.25 8.51878 14.4812 9.75 16 9.75V8.25C15.3096 8.25 14.75 7.69036 14.75 7H13.25ZM8 11.75H12V10.25H8V11.75ZM8 15.75H10V14.25H8V15.75Z" fill="white"/>
</svg>
