<svg width="48" height="48" viewBox="0 0 48 48" fill="none" xmlns="http://www.w3.org/2000/svg">
<path d="M30.0002 24.001C30.0002 27.3147 27.3139 30.001 24.0002 30.001C20.6865 30.001 18.0002 27.3147 18.0002 24.001C18.0002 20.6873 20.6865 18.001 24.0002 18.001C27.3139 18.001 30.0002 20.6873 30.0002 24.001Z" stroke="#F7F9FC" stroke-width="3" stroke-linejoin="round"/>
<path d="M8.57819 14.7133C7.66203 16.2313 6.96367 17.8955 6.52637 19.6627C8.05062 20.7552 9.00009 22.295 9.00009 24.0011C9.00009 25.7072 8.05062 27.247 6.52637 28.3394C6.96368 30.1067 7.66208 31.7709 8.57829 33.2889C10.428 32.9841 12.1874 33.4017 13.3935 34.6077C14.5995 35.8137 15.0171 37.5732 14.7123 39.4229C16.2303 40.3391 17.8945 41.0375 19.6617 41.4748C20.7542 39.9505 22.294 39.0011 24.0001 39.0011C25.7062 39.0011 27.246 39.9505 28.3385 41.4748C30.1057 41.0375 31.7699 40.3391 33.2879 39.4229C32.9831 37.5732 33.4007 35.8138 34.6067 34.6077C35.8127 33.4017 37.5722 32.9842 39.4219 33.2889C40.3381 31.7709 41.0365 30.1067 41.4738 28.3394C39.9496 27.247 39.0001 25.7072 39.0001 24.0011C39.0001 22.2949 39.9496 20.7552 41.4738 19.6627C41.0365 17.8955 40.3381 16.2313 39.422 14.7133C37.5723 15.0182 35.8128 14.6006 34.6067 13.3946C33.4006 12.1885 32.9831 10.429 33.2879 8.57924C31.7699 7.66305 30.1057 6.96466 28.3385 6.52734C27.246 8.0516 25.7062 9.00106 24.0001 9.00106C22.294 9.00106 20.7542 8.0516 19.6617 6.52734C17.8945 6.96466 16.2303 7.66304 14.7123 8.57923C15.0171 10.429 14.5996 12.1885 13.3935 13.3946C12.1874 14.6006 10.4279 15.0182 8.57819 14.7133Z" stroke="#F7F9FC" stroke-width="3" stroke-linejoin="round"/>
</svg>
