<svg width="502" height="168" viewBox="0 0 502 168" fill="none" xmlns="http://www.w3.org/2000/svg">
<g clip-path="url(#clip0_23_42)">
<path fill-rule="evenodd" clip-rule="evenodd" d="M436.5 55.01C436.5 49.4816 432.018 45 426.49 45H401.01C395.482 45 391 49.4816 391 55.01V80.8173C391 86.3457 395.482 90.8271 401.01 90.8271H426.49C432.018 90.8271 436.5 95.3089 436.5 100.837V125.99C436.5 131.518 440.982 136 446.51 136H471.99C477.518 136 482 131.518 482 125.99V100.182C482 94.6542 477.518 90.1726 471.99 90.1726H446.51C440.982 90.1726 436.5 85.691 436.5 80.1626V55.01Z" fill="white"/>
</g>
<path d="M50.304 137.92C24.192 137.92 3.584 116.928 3.584 89.92C3.584 63.04 24.192 42.176 50.304 42.176C75.52 42.176 94.976 58.944 97.92 83.264H72.32C70.4 71.744 61.824 63.808 50.56 63.808C36.992 63.808 28.416 74.304 28.416 89.92C28.416 105.664 36.992 116.288 50.56 116.288C61.696 116.288 70.272 108.352 72.32 96.704H97.92C94.848 121.28 75.52 137.92 50.304 137.92ZM134.652 136H110.46V44.096H148.092C172.924 44.096 187.132 55.232 187.132 74.816C187.132 86.592 180.092 96.32 167.676 101.568L190.204 136H161.404L142.588 105.408H134.652V136ZM134.652 64.064V85.44H147.068C157.82 85.44 162.812 82.112 162.812 74.816C162.812 67.52 157.82 64.064 147.068 64.064H134.652ZM266.109 115.008V136H201.085V44.096H265.213V65.088H225.277V78.272H261.501V99.264H225.277V115.008H266.109ZM315.8 136H279.96V44.096H315.8C344.856 44.096 363.16 62.784 363.16 89.536C363.16 116.288 344.216 136 315.8 136ZM304.152 64.96V115.136H314.392C330.392 115.136 338.328 106.816 338.328 89.536C338.328 73.28 330.136 64.96 314.392 64.96H304.152Z" fill="white"/>
<defs>
<clipPath id="clip0_23_42">
<rect width="91" height="91" fill="white" transform="translate(391 45)"/>
</clipPath>
</defs>
</svg>
